<svg xmlns="http://www.w3.org/2000/svg" version="1.1" xmlns:xlink="http://www.w3.org/1999/xlink" xmlns:svgjs="http://svgjs.com/svgjs" width="1440" height="560" preserveAspectRatio="none" viewBox="0 0 1440 560"><g mask="url(&quot;#SvgjsMask3950&quot;)" fill="none"><rect width="1440" height="560" x="0" y="0" fill="rgba(233, 236, 239, 1)"></rect><path d="M104 71.44L168.96 108.94L168.96 183.94L104 221.44L39.05 183.94L39.05 108.94zM104 521.44L168.96 558.94L168.96 633.94L104 671.44L39.05 633.94L39.05 558.94zM233.91 71.44L298.87 108.94L298.87 183.94L233.91 221.44L168.96 183.94L168.96 108.94zM233.91 296.44L298.87 333.94L298.87 408.94L233.91 446.44L168.96 408.94L168.96 333.94zM168.96 408.94L233.91 446.44L233.91 521.44L168.96 558.94L104 521.44L104 446.44zM363.82 71.44L428.77 108.94L428.77 183.94L363.82 221.44L298.87 183.94L298.87 108.94zM753.54 71.44L818.5 108.94L818.5 183.94L753.54 221.44L688.59 183.94L688.59 108.94zM883.45 296.44L948.4 333.94L948.4 408.94L883.45 446.44L818.49 408.94L818.49 333.94zM948.4 -41.06L1013.36 -3.56L1013.36 71.44L948.4 108.94L883.45 71.44L883.45 -3.56zM1013.36 296.44L1078.31 333.94L1078.31 408.94L1013.36 446.44L948.4 408.94L948.4 333.94zM1013.36 521.44L1078.31 558.94L1078.31 633.94L1013.36 671.44L948.4 633.94L948.4 558.94zM1078.31 -41.06L1143.26 -3.56L1143.26 71.44L1078.31 108.94L1013.36 71.44L1013.36 -3.56zM1143.26 71.44L1208.22 108.94L1208.22 183.94L1143.26 221.44L1078.31 183.94L1078.31 108.94zM1143.26 296.44L1208.22 333.94L1208.22 408.94L1143.26 446.44L1078.31 408.94L1078.31 333.94zM1078.31 408.94L1143.26 446.44L1143.26 521.44L1078.31 558.94L1013.36 521.44L1013.36 446.44zM1338.13 -41.06L1403.08 -3.56L1403.08 71.44L1338.13 108.94L1273.17 71.44L1273.17 -3.56zM1532.99 521.44L1597.94 558.94L1597.94 633.94L1532.99 671.44L1468.03 633.94L1468.03 558.94z" stroke="rgba(108, 15, 196, 1)" stroke-width="2"></path><path d="M96.5 71.44 a7.5 7.5 0 1 0 15 0 a7.5 7.5 0 1 0 -15 0zM161.46 108.94 a7.5 7.5 0 1 0 15 0 a7.5 7.5 0 1 0 -15 0zM161.46 183.94 a7.5 7.5 0 1 0 15 0 a7.5 7.5 0 1 0 -15 0zM96.5 221.44 a7.5 7.5 0 1 0 15 0 a7.5 7.5 0 1 0 -15 0zM31.55 183.94 a7.5 7.5 0 1 0 15 0 a7.5 7.5 0 1 0 -15 0zM31.55 108.94 a7.5 7.5 0 1 0 15 0 a7.5 7.5 0 1 0 -15 0zM96.5 521.44 a7.5 7.5 0 1 0 15 0 a7.5 7.5 0 1 0 -15 0zM161.46 558.94 a7.5 7.5 0 1 0 15 0 a7.5 7.5 0 1 0 -15 0zM161.46 633.94 a7.5 7.5 0 1 0 15 0 a7.5 7.5 0 1 0 -15 0zM96.5 671.44 a7.5 7.5 0 1 0 15 0 a7.5 7.5 0 1 0 -15 0zM31.55 633.94 a7.5 7.5 0 1 0 15 0 a7.5 7.5 0 1 0 -15 0zM31.55 558.94 a7.5 7.5 0 1 0 15 0 a7.5 7.5 0 1 0 -15 0zM226.41 71.44 a7.5 7.5 0 1 0 15 0 a7.5 7.5 0 1 0 -15 0zM291.37 108.94 a7.5 7.5 0 1 0 15 0 a7.5 7.5 0 1 0 -15 0zM291.37 183.94 a7.5 7.5 0 1 0 15 0 a7.5 7.5 0 1 0 -15 0zM226.41 221.44 a7.5 7.5 0 1 0 15 0 a7.5 7.5 0 1 0 -15 0zM226.41 296.44 a7.5 7.5 0 1 0 15 0 a7.5 7.5 0 1 0 -15 0zM291.37 333.94 a7.5 7.5 0 1 0 15 0 a7.5 7.5 0 1 0 -15 0zM291.37 408.94 a7.5 7.5 0 1 0 15 0 a7.5 7.5 0 1 0 -15 0zM226.41 446.44 a7.5 7.5 0 1 0 15 0 a7.5 7.5 0 1 0 -15 0zM161.46 408.94 a7.5 7.5 0 1 0 15 0 a7.5 7.5 0 1 0 -15 0zM161.46 333.94 a7.5 7.5 0 1 0 15 0 a7.5 7.5 0 1 0 -15 0zM226.41 521.44 a7.5 7.5 0 1 0 15 0 a7.5 7.5 0 1 0 -15 0zM96.5 446.44 a7.5 7.5 0 1 0 15 0 a7.5 7.5 0 1 0 -15 0zM356.32 71.44 a7.5 7.5 0 1 0 15 0 a7.5 7.5 0 1 0 -15 0zM421.27 108.94 a7.5 7.5 0 1 0 15 0 a7.5 7.5 0 1 0 -15 0zM421.27 183.94 a7.5 7.5 0 1 0 15 0 a7.5 7.5 0 1 0 -15 0zM356.32 221.44 a7.5 7.5 0 1 0 15 0 a7.5 7.5 0 1 0 -15 0zM746.04 71.44 a7.5 7.5 0 1 0 15 0 a7.5 7.5 0 1 0 -15 0zM811 108.94 a7.5 7.5 0 1 0 15 0 a7.5 7.5 0 1 0 -15 0zM811 183.94 a7.5 7.5 0 1 0 15 0 a7.5 7.5 0 1 0 -15 0zM746.04 221.44 a7.5 7.5 0 1 0 15 0 a7.5 7.5 0 1 0 -15 0zM681.09 183.94 a7.5 7.5 0 1 0 15 0 a7.5 7.5 0 1 0 -15 0zM681.09 108.94 a7.5 7.5 0 1 0 15 0 a7.5 7.5 0 1 0 -15 0zM875.95 296.44 a7.5 7.5 0 1 0 15 0 a7.5 7.5 0 1 0 -15 0zM940.9 333.94 a7.5 7.5 0 1 0 15 0 a7.5 7.5 0 1 0 -15 0zM940.9 408.94 a7.5 7.5 0 1 0 15 0 a7.5 7.5 0 1 0 -15 0zM875.95 446.44 a7.5 7.5 0 1 0 15 0 a7.5 7.5 0 1 0 -15 0zM810.99 408.94 a7.5 7.5 0 1 0 15 0 a7.5 7.5 0 1 0 -15 0zM810.99 333.94 a7.5 7.5 0 1 0 15 0 a7.5 7.5 0 1 0 -15 0zM940.9 -41.06 a7.5 7.5 0 1 0 15 0 a7.5 7.5 0 1 0 -15 0zM1005.86 -3.56 a7.5 7.5 0 1 0 15 0 a7.5 7.5 0 1 0 -15 0zM1005.86 71.44 a7.5 7.5 0 1 0 15 0 a7.5 7.5 0 1 0 -15 0zM940.9 108.94 a7.5 7.5 0 1 0 15 0 a7.5 7.5 0 1 0 -15 0zM875.95 71.44 a7.5 7.5 0 1 0 15 0 a7.5 7.5 0 1 0 -15 0zM875.95 -3.56 a7.5 7.5 0 1 0 15 0 a7.5 7.5 0 1 0 -15 0zM1005.86 296.44 a7.5 7.5 0 1 0 15 0 a7.5 7.5 0 1 0 -15 0zM1070.81 333.94 a7.5 7.5 0 1 0 15 0 a7.5 7.5 0 1 0 -15 0zM1070.81 408.94 a7.5 7.5 0 1 0 15 0 a7.5 7.5 0 1 0 -15 0zM1005.86 446.44 a7.5 7.5 0 1 0 15 0 a7.5 7.5 0 1 0 -15 0zM1005.86 521.44 a7.5 7.5 0 1 0 15 0 a7.5 7.5 0 1 0 -15 0zM1070.81 558.94 a7.5 7.5 0 1 0 15 0 a7.5 7.5 0 1 0 -15 0zM1070.81 633.94 a7.5 7.5 0 1 0 15 0 a7.5 7.5 0 1 0 -15 0zM1005.86 671.44 a7.5 7.5 0 1 0 15 0 a7.5 7.5 0 1 0 -15 0zM940.9 633.94 a7.5 7.5 0 1 0 15 0 a7.5 7.5 0 1 0 -15 0zM940.9 558.94 a7.5 7.5 0 1 0 15 0 a7.5 7.5 0 1 0 -15 0zM1070.81 -41.06 a7.5 7.5 0 1 0 15 0 a7.5 7.5 0 1 0 -15 0zM1135.76 -3.56 a7.5 7.5 0 1 0 15 0 a7.5 7.5 0 1 0 -15 0zM1135.76 71.44 a7.5 7.5 0 1 0 15 0 a7.5 7.5 0 1 0 -15 0zM1070.81 108.94 a7.5 7.5 0 1 0 15 0 a7.5 7.5 0 1 0 -15 0zM1200.72 108.94 a7.5 7.5 0 1 0 15 0 a7.5 7.5 0 1 0 -15 0zM1200.72 183.94 a7.5 7.5 0 1 0 15 0 a7.5 7.5 0 1 0 -15 0zM1135.76 221.44 a7.5 7.5 0 1 0 15 0 a7.5 7.5 0 1 0 -15 0zM1070.81 183.94 a7.5 7.5 0 1 0 15 0 a7.5 7.5 0 1 0 -15 0zM1135.76 296.44 a7.5 7.5 0 1 0 15 0 a7.5 7.5 0 1 0 -15 0zM1200.72 333.94 a7.5 7.5 0 1 0 15 0 a7.5 7.5 0 1 0 -15 0zM1200.72 408.94 a7.5 7.5 0 1 0 15 0 a7.5 7.5 0 1 0 -15 0zM1135.76 446.44 a7.5 7.5 0 1 0 15 0 a7.5 7.5 0 1 0 -15 0zM1135.76 521.44 a7.5 7.5 0 1 0 15 0 a7.5 7.5 0 1 0 -15 0zM1330.63 -41.06 a7.5 7.5 0 1 0 15 0 a7.5 7.5 0 1 0 -15 0zM1395.58 -3.56 a7.5 7.5 0 1 0 15 0 a7.5 7.5 0 1 0 -15 0zM1395.58 71.44 a7.5 7.5 0 1 0 15 0 a7.5 7.5 0 1 0 -15 0zM1330.63 108.94 a7.5 7.5 0 1 0 15 0 a7.5 7.5 0 1 0 -15 0zM1265.67 71.44 a7.5 7.5 0 1 0 15 0 a7.5 7.5 0 1 0 -15 0zM1265.67 -3.56 a7.5 7.5 0 1 0 15 0 a7.5 7.5 0 1 0 -15 0zM1525.49 521.44 a7.5 7.5 0 1 0 15 0 a7.5 7.5 0 1 0 -15 0zM1590.44 558.94 a7.5 7.5 0 1 0 15 0 a7.5 7.5 0 1 0 -15 0zM1590.44 633.94 a7.5 7.5 0 1 0 15 0 a7.5 7.5 0 1 0 -15 0zM1525.49 671.44 a7.5 7.5 0 1 0 15 0 a7.5 7.5 0 1 0 -15 0zM1460.53 633.94 a7.5 7.5 0 1 0 15 0 a7.5 7.5 0 1 0 -15 0zM1460.53 558.94 a7.5 7.5 0 1 0 15 0 a7.5 7.5 0 1 0 -15 0z" fill="rgba(108, 15, 196, 1)"></path><path d="M7.3 94.71L35.01 110.71L35.01 142.71L7.3 158.71L-20.41 142.71L-20.41 110.71zM35.01 334.71L62.73 350.71L62.73 382.71L35.01 398.71L7.3 382.71L7.3 350.71zM35.01 526.71L62.73 542.71L62.73 574.71L35.01 590.71L7.3 574.71L7.3 542.71zM7.3 574.71L35.01 590.71L35.01 622.71L7.3 638.71L-20.41 622.71L-20.41 590.71zM62.73 94.71L90.44 110.71L90.44 142.71L62.73 158.71L35.01 142.71L35.01 110.71zM62.73 190.71L90.44 206.71L90.44 238.71L62.73 254.71L35.01 238.71L35.01 206.71zM90.44 334.71L118.15 350.71L118.15 382.71L90.44 398.71L62.73 382.71L62.73 350.71zM90.44 526.71L118.15 542.71L118.15 574.71L90.44 590.71L62.73 574.71L62.73 542.71zM118.15 -1.29L145.87 14.71L145.87 46.71L118.15 62.71L90.44 46.71L90.44 14.71zM118.15 382.71L145.87 398.71L145.87 430.71L118.15 446.71L90.44 430.71L90.44 398.71zM173.58 94.71L201.3 110.71L201.3 142.71L173.58 158.71L145.87 142.71L145.87 110.71zM173.58 574.71L201.3 590.71L201.3 622.71L173.58 638.71L145.87 622.71L145.87 590.71zM229.01 -1.29L256.72 14.71L256.72 46.71L229.01 62.71L201.3 46.71L201.3 14.71zM229.01 382.71L256.72 398.71L256.72 430.71L229.01 446.71L201.3 430.71L201.3 398.71zM284.44 286.71L312.15 302.71L312.15 334.71L284.44 350.71L256.72 334.71L256.72 302.71zM312.15 430.71L339.86 446.71L339.86 478.71L312.15 494.71L284.44 478.71L284.44 446.71zM284.44 478.71L312.15 494.71L312.15 526.71L284.44 542.71L256.72 526.71L256.72 494.71zM312.15 526.71L339.86 542.71L339.86 574.71L312.15 590.71L284.44 574.71L284.44 542.71zM339.86 -1.29L367.58 14.71L367.58 46.71L339.86 62.71L312.15 46.71L312.15 14.71zM339.86 94.71L367.58 110.71L367.58 142.71L339.86 158.71L312.15 142.71L312.15 110.71zM339.86 190.71L367.58 206.71L367.58 238.71L339.86 254.71L312.15 238.71L312.15 206.71zM339.86 286.71L367.58 302.71L367.58 334.71L339.86 350.71L312.15 334.71L312.15 302.71zM367.58 526.71L395.29 542.71L395.29 574.71L367.58 590.71L339.86 574.71L339.86 542.71zM423 334.71L450.72 350.71L450.72 382.71L423 398.71L395.29 382.71L395.29 350.71zM450.72 382.71L478.43 398.71L478.43 430.71L450.72 446.71L423 430.71L423 398.71zM450.72 478.71L478.43 494.71L478.43 526.71L450.72 542.71L423 526.71L423 494.71zM478.43 526.71L506.14 542.71L506.14 574.71L478.43 590.71L450.72 574.71L450.72 542.71zM450.72 574.71L478.43 590.71L478.43 622.71L450.72 638.71L423 622.71L423 590.71zM533.86 46.71L561.57 62.71L561.57 94.71L533.86 110.71L506.14 94.71L506.14 62.71zM506.14 94.71L533.86 110.71L533.86 142.71L506.14 158.71L478.43 142.71L478.43 110.71zM506.14 190.71L533.86 206.71L533.86 238.71L506.14 254.71L478.43 238.71L478.43 206.71zM533.86 238.71L561.57 254.71L561.57 286.71L533.86 302.71L506.14 286.71L506.14 254.71zM589.29 46.71L617 62.71L617 94.71L589.29 110.71L561.57 94.71L561.57 62.71zM561.57 190.71L589.29 206.71L589.29 238.71L561.57 254.71L533.86 238.71L533.86 206.71zM589.29 238.71L617 254.71L617 286.71L589.29 302.71L561.57 286.71L561.57 254.71zM589.29 526.71L617 542.71L617 574.71L589.29 590.71L561.57 574.71L561.57 542.71zM617 -1.29L644.71 14.71L644.71 46.71L617 62.71L589.29 46.71L589.29 14.71zM644.71 142.71L672.43 158.71L672.43 190.71L644.71 206.71L617 190.71L617 158.71zM644.71 334.71L672.43 350.71L672.43 382.71L644.71 398.71L617 382.71L617 350.71zM617 382.71L644.71 398.71L644.71 430.71L617 446.71L589.29 430.71L589.29 398.71zM700.14 142.71L727.85 158.71L727.85 190.71L700.14 206.71L672.43 190.71L672.43 158.71zM700.14 430.71L727.85 446.71L727.85 478.71L700.14 494.71L672.43 478.71L672.43 446.71zM672.43 574.71L700.14 590.71L700.14 622.71L672.43 638.71L644.71 622.71L644.71 590.71zM755.57 46.71L783.28 62.71L783.28 94.71L755.57 110.71L727.85 94.71L727.85 62.71zM755.57 142.71L783.28 158.71L783.28 190.71L755.57 206.71L727.85 190.71L727.85 158.71zM755.57 334.71L783.28 350.71L783.28 382.71L755.57 398.71L727.85 382.71L727.85 350.71zM727.85 574.71L755.57 590.71L755.57 622.71L727.85 638.71L700.14 622.71L700.14 590.71zM783.28 -1.29L810.99 14.71L810.99 46.71L783.28 62.71L755.57 46.71L755.57 14.71zM810.99 238.71L838.71 254.71L838.71 286.71L810.99 302.71L783.28 286.71L783.28 254.71zM783.28 382.71L810.99 398.71L810.99 430.71L783.28 446.71L755.57 430.71L755.57 398.71zM783.28 478.71L810.99 494.71L810.99 526.71L783.28 542.71L755.57 526.71L755.57 494.71zM810.99 526.71L838.71 542.71L838.71 574.71L810.99 590.71L783.28 574.71L783.28 542.71zM838.71 382.71L866.42 398.71L866.42 430.71L838.71 446.71L810.99 430.71L810.99 398.71zM866.42 430.71L894.14 446.71L894.14 478.71L866.42 494.71L838.71 478.71L838.71 446.71zM866.42 526.71L894.14 542.71L894.14 574.71L866.42 590.71L838.71 574.71L838.71 542.71zM894.14 -1.29L921.85 14.71L921.85 46.71L894.14 62.71L866.42 46.71L866.42 14.71zM894.14 190.71L921.85 206.71L921.85 238.71L894.14 254.71L866.42 238.71L866.42 206.71zM894.14 382.71L921.85 398.71L921.85 430.71L894.14 446.71L866.42 430.71L866.42 398.71zM977.28 238.71L1004.99 254.71L1004.99 286.71L977.28 302.71L949.56 286.71L949.56 254.71zM949.56 574.71L977.28 590.71L977.28 622.71L949.56 638.71L921.85 622.71L921.85 590.71zM1004.99 -1.29L1032.7 14.71L1032.7 46.71L1004.99 62.71L977.28 46.71L977.28 14.71zM1004.99 382.71L1032.7 398.71L1032.7 430.71L1004.99 446.71L977.28 430.71L977.28 398.71zM1004.99 478.71L1032.7 494.71L1032.7 526.71L1004.99 542.71L977.28 526.71L977.28 494.71zM1032.7 526.71L1060.42 542.71L1060.42 574.71L1032.7 590.71L1004.99 574.71L1004.99 542.71zM1060.42 -1.29L1088.13 14.71L1088.13 46.71L1060.42 62.71L1032.7 46.71L1032.7 14.71zM1088.13 46.71L1115.84 62.71L1115.84 94.71L1088.13 110.71L1060.42 94.71L1060.42 62.71zM1088.13 334.71L1115.84 350.71L1115.84 382.71L1088.13 398.71L1060.42 382.71L1060.42 350.71zM1060.42 574.71L1088.13 590.71L1088.13 622.71L1060.42 638.71L1032.7 622.71L1032.7 590.71zM1143.56 46.71L1171.27 62.71L1171.27 94.71L1143.56 110.71L1115.84 94.71L1115.84 62.71zM1115.84 94.71L1143.56 110.71L1143.56 142.71L1115.84 158.71L1088.13 142.71L1088.13 110.71zM1143.56 238.71L1171.27 254.71L1171.27 286.71L1143.56 302.71L1115.84 286.71L1115.84 254.71zM1115.84 286.71L1143.56 302.71L1143.56 334.71L1115.84 350.71L1088.13 334.71L1088.13 302.71zM1115.84 382.71L1143.56 398.71L1143.56 430.71L1115.84 446.71L1088.13 430.71L1088.13 398.71zM1143.56 430.71L1171.27 446.71L1171.27 478.71L1143.56 494.71L1115.84 478.71L1115.84 446.71zM1198.98 142.71L1226.7 158.71L1226.7 190.71L1198.98 206.71L1171.27 190.71L1171.27 158.71zM1198.98 238.71L1226.7 254.71L1226.7 286.71L1198.98 302.71L1171.27 286.71L1171.27 254.71zM1198.98 526.71L1226.7 542.71L1226.7 574.71L1198.98 590.71L1171.27 574.71L1171.27 542.71zM1254.41 142.71L1282.13 158.71L1282.13 190.71L1254.41 206.71L1226.7 190.71L1226.7 158.71zM1226.7 190.71L1254.41 206.71L1254.41 238.71L1226.7 254.71L1198.98 238.71L1198.98 206.71zM1254.41 238.71L1282.13 254.71L1282.13 286.71L1254.41 302.71L1226.7 286.71L1226.7 254.71zM1254.41 334.71L1282.13 350.71L1282.13 382.71L1254.41 398.71L1226.7 382.71L1226.7 350.71zM1226.7 478.71L1254.41 494.71L1254.41 526.71L1226.7 542.71L1198.98 526.71L1198.98 494.71zM1254.41 526.71L1282.13 542.71L1282.13 574.71L1254.41 590.71L1226.7 574.71L1226.7 542.71zM1226.7 574.71L1254.41 590.71L1254.41 622.71L1226.7 638.71L1198.98 622.71L1198.98 590.71zM1282.13 478.71L1309.84 494.71L1309.84 526.71L1282.13 542.71L1254.41 526.71L1254.41 494.71zM1337.55 -1.29L1365.27 14.71L1365.27 46.71L1337.55 62.71L1309.84 46.71L1309.84 14.71zM1365.27 46.71L1392.98 62.71L1392.98 94.71L1365.27 110.71L1337.55 94.71L1337.55 62.71zM1337.55 94.71L1365.27 110.71L1365.27 142.71L1337.55 158.71L1309.84 142.71L1309.84 110.71zM1337.55 190.71L1365.27 206.71L1365.27 238.71L1337.55 254.71L1309.84 238.71L1309.84 206.71zM1365.27 238.71L1392.98 254.71L1392.98 286.71L1365.27 302.71L1337.55 286.71L1337.55 254.71zM1365.27 526.71L1392.98 542.71L1392.98 574.71L1365.27 590.71L1337.55 574.71L1337.55 542.71zM1392.98 190.71L1420.69 206.71L1420.69 238.71L1392.98 254.71L1365.27 238.71L1365.27 206.71zM1420.69 430.71L1448.41 446.71L1448.41 478.71L1420.69 494.71L1392.98 478.71L1392.98 446.71z" stroke="url(#SvgjsLinearGradient3951)" stroke-width="2"></path></g><defs><mask id="SvgjsMask3950"><rect width="1440" height="560" fill="#ffffff"></rect></mask><linearGradient x1="0" y1="280" x2="1440" y2="280" gradientUnits="userSpaceOnUse" id="SvgjsLinearGradient3951"><stop stop-color="rgba(0, 125, 255, 1)" offset="0"></stop><stop stop-color="rgba(202, 0, 255, 1)" offset="1"></stop></linearGradient></defs></svg>